<svg width="20" height="13" viewBox="0 0 20 13" fill="none" xmlns="http://www.w3.org/2000/svg">
<path fill-rule="evenodd" clip-rule="evenodd" d="M19.6248 6.49989C19.6248 6.68223 19.5523 6.85709 19.4234 6.98603C19.2945 7.11496 19.1196 7.18739 18.9373 7.18739L2.72189 7.18739L7.04901 11.5131C7.17811 11.6422 7.25063 11.8173 7.25063 11.9999C7.25063 12.1825 7.17811 12.3575 7.04901 12.4866C6.91992 12.6157 6.74483 12.6883 6.56226 12.6883C6.3797 12.6883 6.20461 12.6157 6.07551 12.4866L0.575514 6.98664C0.51149 6.92278 0.460694 6.84691 0.426035 6.76339C0.391376 6.67986 0.373535 6.59032 0.373535 6.49989C0.373535 6.40946 0.391376 6.31992 0.426035 6.23639C0.460693 6.15287 0.51149 6.077 0.575514 6.01314L6.07551 0.513141C6.13943 0.449221 6.21532 0.398516 6.29884 0.363922C6.38235 0.329328 6.47187 0.311523 6.56226 0.311523C6.74483 0.311523 6.91992 0.384047 7.04901 0.513141C7.17811 0.642235 7.25063 0.817325 7.25063 0.999891C7.25063 1.18246 7.17811 1.35755 7.04901 1.48664L2.72189 5.81239L18.9373 5.81239C19.1196 5.81239 19.2945 5.88482 19.4234 6.01375C19.5523 6.14269 19.6248 6.31755 19.6248 6.49989Z" fill="#181818" fill-opacity="0.4"/>
</svg>
